<?xml version="1.0" encoding="utf-8"?>
<!-- Generator: Adobe Illustrator 23.0.3, SVG Export Plug-In . SVG Version: 6.00 Build 0)  -->
<svg version="1.1" id="Layer_1" xmlns="http://www.w3.org/2000/svg" xmlns:xlink="http://www.w3.org/1999/xlink" x="0px" y="0px"
	 viewBox="0 0 629.1 256.3" style="enable-background:new 0 0 629.1 256.3;" xml:space="preserve">
<style type="text/css">
	.st0{fill:#202020;}
	.st1{fill:#1FB793;}
	.st2{fill:#ADADAD;}
</style>
<g>
	<path class="st0" d="M80.7,13.3l1.9-0.9l1.9-0.8c1.3-0.5,2.6-1,3.9-1.5c2.6-0.9,5.2-1.8,7.9-2.5c-2.9,0.7-5.7,1.7-8.5,2.6
		c-2.8,1-5.6,2-8.3,3.3c-2.8,1.1-5.4,2.5-8.1,3.9c-2.6,1.4-5.2,2.9-7.8,4.5c-10.2,6.4-19.4,14.4-27.3,23.6
		C32.6,50.1,29,55,25.8,60.1c-3.2,5.2-6,10.6-8.4,16.1C15,81.9,13,87.6,11.4,93.5c-1.5,5.9-2.6,11.9-3.2,17.9
		c-0.6,6-0.8,12.1-0.6,18.1c0.3,6,1,12,2.1,18c1.2,5.9,2.7,11.7,4.7,17.4c2,5.6,4.4,11.1,7.1,16.4c11,21.1,27.9,38.5,47.6,50.1
		c1.2,0.8,2.7,1.7,4.4,2.7c1.7,1,3.6,2,5.5,3c3.8,2,7.8,3.7,10.5,4.8c2.7,1,5.5,1.8,8.4,2.7c2.9,0.7,5.8,1.5,8.8,2
		c3,0.6,6.1,1,9.1,1.5c1.5,0.2,3.1,0.3,4.7,0.4l2.4,0.2l2.4,0.1c6.3,0.3,12.8,0,19.2-0.8c1.6-0.2,3.2-0.4,4.8-0.7
		c1.6-0.3,3.2-0.6,4.8-0.9c3.2-0.7,6.4-1.4,9.5-2.3c6.3-1.8,12.4-4.1,18.3-6.9c5.9-2.8,11.5-5.9,16.7-9.5
		c5.2-3.6,10.1-7.5,14.6-11.6c4.4-4.2,8.5-8.5,12.2-13c7.3-9,11.5-18.3,13.8-25.1c0.6-1.7,1-3.2,1.4-4.6c0.4-1.4,0.7-2.5,0.9-3.5
		c0.4-1.9,0.5-3,0.5-3c0.2-0.7,0.3-1.4,0.5-2c0.1-0.7,0.2-1.3,0.3-1.9c0.2-1.2,0.3-2.3,0.2-3c0-1.5-0.5-1.6-1.7,0.9
		c-0.9,2.6-2.3,6.1-4,9.8c-0.9,1.8-1.7,3.8-2.8,5.6c-0.5,0.9-1,1.9-1.5,2.8c-0.5,0.9-1.1,1.8-1.6,2.7c-4.2,7-8.7,12.1-9.2,11.7
		c-0.1-0.1,0.6-1.2,1.7-2.9c0.6-0.8,1.3-1.8,1.9-2.8c0.7-1.1,1.4-2.2,2.1-3.3c-0.3-0.2-0.1-1.2,0.3-2.8c0.4-1.6,1.1-3.7,1.7-5.9
		c0.3-1.1,0.7-2.3,1.1-3.4c0.3-1.1,0.6-2.3,1-3.3c0.7-2.1,1.2-4,1.7-5.2c0.4-1.3,1.1-4.1,1.9-7.7c0.3-1.8,0.8-3.8,1.1-5.9
		c0.3-2.1,0.7-4.3,0.9-6.6c0.1-1.1,0.2-2.2,0.3-3.3c0.1-1.1,0.1-2.2,0.2-3.3c0.1-2.1,0.1-4.1,0.1-6c0-1.8-0.1-3.4-0.2-4.8
		c-0.1-1.3-0.2-2.3-0.2-3c-0.3-3.8-0.8-3.8-1.4-1.4c-0.7,2.5-1.5,7.2-2.8,12.9c-1.3,5.7-3.4,12.2-5.9,18.1c-2.5,6-5.4,11.5-7.7,15.6
		c-2.4,4-2.9,3.8-2.7,2.5c0.1-1.3,0.7-3.5,0.2-3.8c-0.5,1-1,2-1.4,2.9c-0.5,0.9-1,1.7-1.5,2.5c-0.9,1.6-1.9,3-2.9,4.4
		c-2,2.8-4.2,5.4-6.9,9.1c0,0-0.3,0.3-0.9,0.8c-0.5,0.6-1.3,1.4-2.2,2.4c-1,1-2.1,2.1-3.4,3.4c-0.7,0.6-1.4,1.3-2.1,1.9
		c-0.4,0.3-0.7,0.7-1.1,1c-0.4,0.3-0.8,0.7-1.2,1c-3.2,2.8-7,5.5-10.7,8c-0.9,0.6-1.9,1.2-2.8,1.8c-0.9,0.6-1.8,1.1-2.7,1.6
		c-1.7,1-3.5,1.9-5,2.7c0,0-0.9,0.6-3.5,1.8c-0.6,0.3-1.4,0.7-2.2,1.1c-0.9,0.4-1.8,0.8-2.9,1.2c-1.1,0.5-2.3,0.9-3.6,1.3
		c-0.7,0.2-1.4,0.5-2.1,0.7c-0.7,0.2-1.5,0.4-2.3,0.7c-1.1,0.3-1.9,0.6-2.5,0.8c-0.6,0.2-1,0.3-1.3,0.5c-0.5,0.3-0.5,0.4-0.4,0.6
		c-0.1-0.3-0.1-0.3-0.2-0.7c-2.1,0.9-5.5,1.5-8.9,2c-3.4,0.5-6.8,0.6-9.1,0.9c0-0.3,0-0.3,0-0.7c-2.3,0.2-4.5,0.4-6.8,0.3
		c-1.1,0-2.3,0-3.4-0.1l-3.4-0.3c-4.5-0.5-9-1.2-13.4-2.1c0.1-0.3,0.1-0.3,0.2-0.7c-4.4-1-8.6-2.4-8.5-2.8c0.1-0.3,0.1-0.3,0.2-0.6
		c-2.1-0.8-5.2-2-7.8-3c-1.3-0.6-2.4-1.1-3.2-1.5c-0.8-0.4-1.2-0.8-1.2-0.9c-0.2,0.3-0.2,0.3-0.3,0.6c-1-0.5-2-1-2.9-1.5
		c-0.9-0.5-1.9-1.1-2.8-1.6c-0.5-0.3-0.9-0.5-1.4-0.8c-0.4-0.3-0.9-0.6-1.3-0.8c-0.9-0.6-1.7-1.1-2.5-1.7c-3.2-2.3-6.2-4.6-8.9-7
		c-5.4-4.8-9.8-9.9-13.7-15.3c-2.5-3.7-4.9-7.5-7.1-11.7c-2.1-4.2-4.1-8.5-5.7-13.1c-1.6-4.6-2.9-9.3-3.9-14.2
		c-1-4.9-1.5-9.9-1.8-15c0-1.3-0.1-2.6-0.1-3.8l0.1-3.8c0-1.3,0.1-2.6,0.2-3.8l0.1-1.9c0.1-0.6,0.1-1.3,0.2-1.9
		c0.2-1.3,0.3-2.6,0.5-3.8l0.6-3.8c0.5-2.5,1-5,1.8-7.5c1.4-4.9,3.1-9.8,5.2-14.4c2.1-4.6,4.6-9,7.3-13.2c2.5-3.6,4.8-7.5,1.5-4.4
		c2.7-3.6,5.7-7,8.9-10.2c1.6-1.5,2.6-2.6,3.3-3.3c0.7-0.7,1-1.2,1.4-1.6c0.3-0.5,0.7-0.9,1.4-1.7c0.7-0.7,1.8-1.6,3.6-3
		c14.3-11.3,31.9-18.4,50.1-20.2c18.3-1.8,37,1.7,53.4,9.9c16.4,8.2,30.4,21.1,40,36.6c9.7,15.6,14.9,33.7,15.2,52.1
		c0.1-9.2-0.8-17.3-2.6-25.2c-1-3.9-2.1-7.8-3.7-11.7c-1.5-3.9-3.4-7.8-5.7-11.8c0.3-0.2,0.9-0.5-1.5-4.5c-3.6-6-8.1-11.8-13.1-17
		c-5-5.2-10.6-9.8-16.1-13.6c-11.1-7.6-22.2-11.8-28.8-14.4c-2.2-0.8-4.4-1.7-7.9-2.7c-3.4-0.9-8.1-2.1-15.3-2.4
		c4.8,0.3,9.6,0.7,14.3,1.7c0.1-0.3,0.2-1,0.2-1c-9.5-2-20.5-2.7-31.3-1.6c-10.9,1.1-21.6,3.9-30.5,7.8c0,0-0.3-0.6-0.4-0.9
		c-3,1.3-5.9,2.8-8.8,4.4c-1.2,0.4-1.5,0.2-1.1-0.2c0.4-0.5,1.5-1.4,3.3-2.4c3.5-2.2,9.6-5.2,17-7.7c7.4-2.5,16.3-4.3,24.8-5
		c8.5-0.7,16.8-0.2,23,0.6c0-0.3,0.1-1,0.2-1.4c-3.4-0.5-6.8-0.8-10.2-0.9l0-0.7c15.4,0.7,29.3,4.4,42.1,10.4
		c12.7,6,24.5,14.4,34.9,25.7c-0.9-0.9-2-2.1-3.2-3.4c-1.2-1.3-2.7-2.6-4-3.9c-1.5-1.3-2.9-2.5-4.2-3.7c-1.4-1.1-2.6-2.1-3.7-2.9
		c0.1-0.1,0.2-0.3-0.2-0.8c-0.4-0.5-1.4-1.3-3.5-2.8c4.3,2.9,8.5,6.4,12.7,10.2c4.2,3.8,8.1,8.1,11.7,12.7c1.8,2.2,3.5,4.6,5.2,7
		c0.8,1.2,1.6,2.4,2.3,3.6c0.8,1.2,1.5,2.4,2.2,3.6c2.8,4.9,5.3,9.8,7.3,14.6c1.1,2.3,1.4,2.2,0.8-0.3c-0.3-1.3-0.8-3.2-1.8-5.6
		c-0.9-2.5-2.3-5.5-4.1-9c-3.9-6.9-7.7-12.3-11.9-17.3c-4.2-5.1-8.8-9.8-14.9-14.9l0.4-0.5c4.1,3.4,8.8,8,13.1,13
		c4.3,5,8.2,10.4,11.1,14.8c1.6,2.1,0.4-0.2-0.9-2.6c-0.3-0.6-0.6-1.2-0.9-1.7c-0.3-0.5-0.5-1-0.7-1.3c-0.3-0.6-0.2-0.7,0.6,0.4
		c0.8,1.1,1.5,2.2,2.2,3.4c0.7,1.1,1.5,2.2,2.1,3.4l2.1,3.4c0.7,1.2,1.3,2.3,2,3.5c-3.6-7.2-8.7-15.2-14.7-22.4
		c-6-7.2-12.9-13.6-19.3-18.6c-1-0.9-2.1-1.7-3-2.5c-1-0.8-1.9-1.6-2.7-2.2c-1.6-1.3-2.6-2.2-2.4-2.5c-11.6-7-23.1-11.6-33.5-14.6
		c-10.5-3-20-4.6-28.3-5.4c-0.7-0.1-1.7-0.1-3.1-0.1c-1.3,0-2.9-0.1-4.7,0.1c-3.6,0.2-8.1,0.6-12.9,1.5c-1.2,0.2-2.4,0.4-3.6,0.7
		c-1.2,0.3-2.5,0.6-3.7,0.9l-1.9,0.4l-1.8,0.5c-1.2,0.4-2.4,0.7-3.7,1.1c-1.2,0.4-2.4,0.8-3.5,1.2c-1.2,0.4-2.3,0.8-3.4,1.2
		C84.8,11.7,82.6,12.4,80.7,13.3z"/>
</g>
<g>
	<path class="st1" d="M343.3,107.2h-36.7v15.1h41l-2.6,17.5h-61.1V59.2h61v17.5h-38.3v13h36.7V107.2z"/>
	<path class="st1" d="M425.8,113.5c0-12.6,0.3-28.8,0.6-38.4h-0.6c-3.4,17.3-8.8,41.2-14.7,64.7h-18.9c-4.6-22.8-9.9-46.8-13.1-64.7
		h-0.7c0.7,9.5,1.1,25.2,1.1,39v25.7h-21V59.2h34c4,16.3,8.6,40,10.4,51.9h0.4c2.1-13,7.5-34.4,12.1-51.9h33v80.6h-22.7V113.5z"/>
	<path class="st1" d="M465.2,59.2h34.6c25.7,0,40.6,16.2,40.6,39.4c0,23.3-14.5,41.2-40.9,41.2h-34.3V59.2z M488.8,122.7h9.1
		c12.8,0,18.1-9,18.1-24.1c0-13.4-4.9-22.3-17.8-22.3h-9.3V122.7z"/>
	<path class="st1" d="M576.4,109.3v30.5h-22.9V59.2h40c19,0,28.2,10.2,28.2,22.3c0,11.1-6.5,16.8-12.1,19.1
		c5.1,1.8,10.5,7.2,10.5,20.8v3.4c0,5,0.2,11.5,1,15h-22.5c-1.4-3.5-1.7-9.3-1.7-17.6v-2.1c0-7-1.7-10.8-12.1-10.8H576.4z
		 M576.4,92.9h10.9c7.9,0,10.7-3.3,10.7-8.7c0-5.4-3.4-8.5-10.6-8.5h-11V92.9z"/>
</g>
<g>
	<path class="st2" d="M295.6,161.4h-12v-9.1h36.1v9.1h-11.9v32.7h-12.3V161.4z"/>
	<path class="st2" d="M324.8,152.3h12.3V168h12.8v-15.6h12.3v41.8h-12.3v-17.1h-12.8v17.1h-12.3V152.3z"/>
	<path class="st2" d="M401.7,177.2h-19.1v7.8h21.3l-1.4,9.1h-31.7v-41.8h31.7v9.1h-19.9v6.7h19.1V177.2z"/>
	<path class="st2" d="M421.3,178.4v15.8h-11.9v-41.8h20.7c9.8,0,14.6,5.3,14.6,11.6c0,5.8-3.4,8.7-6.3,9.9c2.6,0.9,5.5,3.7,5.5,10.8
		v1.7c0,2.6,0.1,6,0.5,7.8h-11.7c-0.7-1.8-0.9-4.8-0.9-9.1V184c0-3.6-0.9-5.6-6.3-5.6H421.3z M421.3,169.8h5.7
		c4.1,0,5.6-1.7,5.6-4.5c0-2.8-1.8-4.4-5.5-4.4h-5.7V169.8z"/>
	<path class="st2" d="M462.8,186l-2.4,8.1h-11.9l13.2-41.8h15.9l13.7,41.8h-12.8L476,186H462.8z M473.8,177
		c-2-6.6-3.6-12.4-4.5-16.5h-0.2c-1,4.5-2.6,10.5-4.3,16.5H473.8z"/>
	<path class="st2" d="M495.7,152.3h19.4c9.4,0,15.8,5.3,15.8,13.4c0,9.4-7.2,13.7-16.1,13.7h-7v14.7h-12.1V152.3z M507.8,170.9h5
		c3.5,0,5.9-1.4,5.9-4.9c0-3.6-2.5-5-5.9-5h-5V170.9z"/>
	<path class="st2" d="M546.6,194.2v-14.5c0-0.5,0-1-0.4-1.6l-14.3-25.8h13.8c2.7,5.9,5.7,12.7,7.6,17.5c1.7-4.6,5.2-12.1,7.7-17.5
		h12.8L559.3,178c-0.2,0.3-0.4,0.7-0.4,1.6v14.6H546.6z"/>
</g>
</svg>
